<?xml version="1.0" encoding="UTF-8"?>
<svg version="1.1" xmlns="http://www.w3.org/2000/svg" width="128" height="128">
<path d="M0 0 C1.12067871 0.00789551 2.24135742 0.01579102 3.39599609 0.02392578 C6.62586862 0.05443276 9.85520171 0.09811506 13.08477783 0.15106201 C15.48601256 0.19033808 17.88728901 0.22615757 20.28857422 0.26220703 C24.77408106 0.33212954 29.25918991 0.41575024 33.74429321 0.50790405 C35.51196891 0.54373789 37.27969112 0.57735994 39.04745483 0.60855103 C47.9422217 0.7716926 56.82043957 1.07038814 65.6796875 1.9140625 C66.36370636 1.96501068 67.04772522 2.01595886 67.75247192 2.06845093 C73.14057794 2.66194957 75.6084961 4.4520773 79.3125 8.1875 C83.95741841 15.11983596 82.49182745 27.32119345 81.3125 35.1875 C79.70144988 39.97537248 76.74933397 43.71209143 73.57373047 47.57373047 C71.85274118 49.77577057 70.45496235 52.12728081 69.01855469 54.52075195 C64.9725879 61.22656727 60.23354769 66.83604826 54.8359375 72.484375 C52.11727204 75.39662965 49.73906643 78.42135018 47.43359375 81.6640625 C46.3125 83.1875 46.3125 83.1875 44.3125 85.1875 C45.10914062 85.5278125 45.90578125 85.868125 46.7265625 86.21875 C53.42301893 89.28184929 59.30413247 92.1178363 62.3125 99.1875 C62.3783827 103.14046227 61.86894111 105.24396942 59.875 108.625 C59.359375 109.140625 58.84375 109.65625 58.3125 110.1875 C57.6525 110.1875 56.9925 110.1875 56.3125 110.1875 C56.06628906 110.79078125 55.82007812 111.3940625 55.56640625 112.015625 C53.29995612 115.94131432 49.43374946 117.58123662 45.3125 119.1875 C40.55466416 119.937541 36.44605729 119.85055101 32.3125 117.1875 C31.9825 116.1975 31.6525 115.2075 31.3125 114.1875 C30.75820312 114.68121094 30.20390625 115.17492187 29.6328125 115.68359375 C28.90835938 116.32425781 28.18390625 116.96492188 27.4375 117.625 C26.71820313 118.26308594 25.99890625 118.90117188 25.2578125 119.55859375 C21.02941137 123.09924289 16.61331953 122.62993061 11.3125 122.1875 C8.3125 121.125 8.3125 121.125 6.3125 119.1875 C5 115.5 5 115.5 4.3125 112.1875 C3.49458984 112.81978516 3.49458984 112.81978516 2.66015625 113.46484375 C-2.68008196 117.34450399 -6.98801781 119.55174369 -13.6875 119.1875 C-17.64721687 118.17650846 -18.37765792 117.65226311 -20.6875 114.1875 C-20.94628906 111.41601562 -20.94628906 111.41601562 -20.953125 108.09375 C-20.95570312 106.89878906 -20.95828125 105.70382813 -20.9609375 104.47265625 C-20.95320313 103.22355469 -20.94546875 101.97445312 -20.9375 100.6875 C-20.94523437 99.43839844 -20.95296875 98.18929687 -20.9609375 96.90234375 C-20.95835938 95.70738281 -20.95578125 94.51242188 -20.953125 93.28125 C-20.95086914 92.18490234 -20.94861328 91.08855469 -20.94628906 89.95898438 C-20.6875 87.1875 -20.6875 87.1875 -18.6875 84.1875 C-19.32816406 83.38828125 -19.96882813 82.5890625 -20.62890625 81.765625 C-32.84034791 66.35685086 -44.62487703 46.03343387 -44.00390625 25.5 C-43.15615161 19.30406486 -41.94888589 12.380589 -37.359375 7.9296875 C-34.79480806 6.25746988 -32.50045738 5.09471547 -29.625 4.0625 C-28.78839844 3.75054687 -27.95179687 3.43859375 -27.08984375 3.1171875 C-18.10013215 0.66075655 -9.28720578 -0.11792815 0 0 Z M-11.6875 94.1875 C-11.6875 99.1375 -11.6875 104.0875 -11.6875 109.1875 C-6.24421096 109.1875 -5.48622302 108.66061819 -1.6875 105.1875 C-2.16158043 100.92077616 -4.57057122 98.9419952 -7.6875 96.1875 C-9.0075 95.5275 -10.3275 94.8675 -11.6875 94.1875 Z M43.3125 95.1875 C42.8175 102.6125 42.8175 102.6125 42.3125 110.1875 C43.776875 109.465625 45.24125 108.74375 46.75 108 C47.57371094 107.59394531 48.39742188 107.18789062 49.24609375 106.76953125 C51.53441604 105.32490279 51.53441604 105.32490279 52.1640625 102.6171875 C52.54893078 100.19908231 52.54893078 100.19908231 51.25 98.5 C48.80981608 96.71965381 48.80981608 96.71965381 43.3125 95.1875 Z " fill="#000611" transform="translate(46.6875,3.8125)"/>
<path d="M0 0 C7.84692409 0.24669894 15.65292304 1.12898745 22 6 C22.99 7.485 22.99 7.485 24 9 C24.144375 7.865625 24.28875 6.73125 24.4375 5.5625 C25 2 25 2 26 1 C29.07366678 0.69406804 32.1629792 0.72159817 35.25 0.6875 C36.53970703 0.64399414 36.53970703 0.64399414 37.85546875 0.59960938 C42.02069478 0.55789294 44.36712414 0.61631385 47.99609375 2.81640625 C50.31504461 5.34329423 51.64491273 7.86190316 53 11 C53.33 7.7 53.66 4.4 54 1 C62.23045189 0.37331585 68.43660642 0.65109263 75 6 C78.80190723 9.69372287 80.9724169 12.34501395 81.0625 17.75 C80.06420775 20.80359981 79.26226224 22.73773776 77 25 C76.34 25 75.68 25 75 25 C74.75378906 25.60328125 74.50757812 26.2065625 74.25390625 26.828125 C71.98745612 30.75381432 68.12124946 32.39373662 64 34 C59.24216416 34.750041 55.13355729 34.66305101 51 32 C50.505 30.515 50.505 30.515 50 29 C49.44570312 29.49371094 48.89140625 29.98742187 48.3203125 30.49609375 C47.59585938 31.13675781 46.87140625 31.77742188 46.125 32.4375 C45.40570313 33.07558594 44.68640625 33.71367188 43.9453125 34.37109375 C39.71691137 37.91174289 35.30081953 37.44243061 30 37 C27 35.9375 27 35.9375 25 34 C23.6875 30.3125 23.6875 30.3125 23 27 C22.18208984 27.63228516 22.18208984 27.63228516 21.34765625 28.27734375 C16.00741804 32.15700399 11.69948219 34.36424369 5 34 C1.04028313 32.98900846 0.30984208 32.46476311 -2 29 C-2.25878906 26.21264648 -2.25878906 26.21264648 -2.265625 22.87109375 C-2.26820312 21.67162109 -2.27078125 20.47214844 -2.2734375 19.23632812 C-2.26570313 17.98271484 -2.25796875 16.72910156 -2.25 15.4375 C-2.25773437 14.18001953 -2.26546875 12.92253906 -2.2734375 11.62695312 C-2.27085938 10.42876953 -2.26828125 9.23058594 -2.265625 7.99609375 C-2.26336914 6.89450928 -2.26111328 5.7929248 -2.25878906 4.65795898 C-2 2 -2 2 0 0 Z M7 9 C7 13.95 7 18.9 7 24 C12.44328904 24 13.20127698 23.47311819 17 20 C16.52591957 15.73327616 14.11692878 13.7544952 11 11 C9.68 10.34 8.36 9.68 7 9 Z M62 10 C61.505 17.425 61.505 17.425 61 25 C62.464375 24.278125 63.92875 23.55625 65.4375 22.8125 C66.26121094 22.40644531 67.08492188 22.00039062 67.93359375 21.58203125 C70.22191604 20.13740279 70.22191604 20.13740279 70.8515625 17.4296875 C71.23643078 15.01158231 71.23643078 15.01158231 69.9375 13.3125 C67.49731608 11.53215381 67.49731608 11.53215381 62 10 Z " fill="#005480" transform="translate(28,89)"/>
<path d="M0 0 C7.84692409 0.24669894 15.65292304 1.12898745 22 6 C22.99 7.485 22.99 7.485 24 9 C24.144375 7.865625 24.28875 6.73125 24.4375 5.5625 C25 2 25 2 26 1 C28.33297433 0.95907063 30.66705225 0.95758277 33 1 C33.495 2.98 33.495 2.98 34 5 C34.61488281 5.01417969 35.22976562 5.02835937 35.86328125 5.04296875 C38.33212506 5.1886581 40.59783233 5.40371724 43 6 C45.06904054 8.44522973 46 9.79091119 46 13 C46.66 13 47.32 13 48 13 C48.33380368 16.67722437 48.27791008 18.54694194 46.3203125 21.73828125 C45.59585938 22.58777344 44.87140625 23.43726562 44.125 24.3125 C43.40570313 25.17488281 42.68640625 26.03726563 41.9453125 26.92578125 C39.42573594 29.61231771 38.64517499 29.97366633 34.9375 30.125 C32 30 32 30 31 29 C30.91251793 27.07332493 30.89302666 25.14348139 30.90234375 23.21484375 C30.90556641 22.04501953 30.90878906 20.87519531 30.91210938 19.66992188 C30.92467773 17.82237305 30.92467773 17.82237305 30.9375 15.9375 C30.94201172 14.70193359 30.94652344 13.46636719 30.95117188 12.19335938 C30.96300392 9.12885883 30.97948827 6.06445279 31 3 C29.68 3 28.36 3 27 3 C27.01160156 4.0621875 27.02320312 5.124375 27.03515625 6.21875 C27.1405473 20.15671621 27.1405473 20.15671621 26 27 C25.01 27 24.02 27 23 27 C21.58898289 27.92651124 20.21786585 28.91470791 18.875 29.9375 C14.31262927 33.08063163 10.54379879 34.30141042 5 34 C1.04028313 32.98900846 0.30984208 32.46476311 -2 29 C-2.25878906 26.21264648 -2.25878906 26.21264648 -2.265625 22.87109375 C-2.26820312 21.67162109 -2.27078125 20.47214844 -2.2734375 19.23632812 C-2.26570313 17.98271484 -2.25796875 16.72910156 -2.25 15.4375 C-2.25773437 14.18001953 -2.26546875 12.92253906 -2.2734375 11.62695312 C-2.27085938 10.42876953 -2.26828125 9.23058594 -2.265625 7.99609375 C-2.26336914 6.89450928 -2.26111328 5.7929248 -2.25878906 4.65795898 C-2 2 -2 2 0 0 Z M7 9 C7 13.95 7 18.9 7 24 C12.44328904 24 13.20127698 23.47311819 17 20 C16.52591957 15.73327616 14.11692878 13.7544952 11 11 C9.68 10.34 8.36 9.68 7 9 Z " fill="#005581" transform="translate(28,89)"/>
<path d="M0 0 C1.65 0 3.3 0 5 0 C7.01994319 5.37381112 8.35163348 10.3094389 8.69140625 16.0546875 C8.91205719 18.32036433 8.91205719 18.32036433 11 21 C11.125 24.1875 11.125 24.1875 11 27 C13.64 27 16.28 27 19 27 C22 32.75 22 32.75 22 35 C22.66 35 23.32 35 24 35 C24.28875 33.96875 24.5775 32.9375 24.875 31.875 C25.5297242 29.55792642 26.24203046 27.33085697 27.0625 25.0625 C27.82236947 22.58025973 28.22443203 20.54779513 28.5 18 C28.88433406 14.44659558 29.78029248 11.37213256 31 8 C31.69364729 5.67368629 32.34543157 3.33774439 33 1 C34.98 1 36.96 1 39 1 C39.08159574 5.16138263 38.98248524 8.9472484 38 13 C37.34 13 36.68 13 36 13 C35.98582031 13.75023437 35.97164062 14.50046875 35.95703125 15.2734375 C35.64135609 22.04765576 34.47762708 26.78400632 31.20703125 32.703125 C28.19915281 38.42685485 27.73802897 44.53083208 27.34375 50.8984375 C27 53 27 53 25 55 C23.68 55 22.36 55 21 55 C20.79503906 54.36191406 20.59007813 53.72382812 20.37890625 53.06640625 C20.10949219 52.24011719 19.84007813 51.41382813 19.5625 50.5625 C19.29566406 49.73878906 19.02882813 48.91507813 18.75390625 48.06640625 C18.17844506 46.03780412 18.17844506 46.03780412 17 45 C15.68 47.97 14.36 50.94 13 54 C8.125 53.125 8.125 53.125 7 52 C6.82009412 50.49458067 6.69997099 48.98193301 6.60546875 47.46875 C6.53900146 46.52104736 6.47253418 45.57334473 6.40405273 44.59692383 C6.33259033 43.57493896 6.26112793 42.5529541 6.1875 41.5 C5.5622474 33.35026453 4.46876842 25.66137489 2.40014648 17.76000977 C0.87470181 11.85770671 0.23428715 6.07975153 0 0 Z " fill="#004F78" transform="translate(71,17)"/>
<path d="M0 0 C2.88630759 0.9979255 4.49535963 2.12151973 7 4 C7.804375 4.515625 8.60875 5.03125 9.4375 5.5625 C12.11965511 9.74666198 11.79852079 14.20210816 11 19 C9.64555954 21.96219231 8.27397972 23.56737053 6 26 C2.85069107 27.04976964 0.61185544 27.10131595 -2.6875 27.0625 C-3.68136719 27.05347656 -4.67523438 27.04445313 -5.69921875 27.03515625 C-6.83810547 27.01775391 -6.83810547 27.01775391 -8 27 C-9.1803183 30.76853652 -9.19060218 34.42554839 -9.28125 38.35546875 C-9.29965942 39.05771072 -9.31806885 39.7599527 -9.33703613 40.48347473 C-9.41554309 43.47963618 -9.48373124 46.4760079 -9.55224609 49.47241211 C-9.60382719 51.66271567 -9.6610991 53.85281793 -9.71875 56.04296875 C-9.74904297 57.35289795 -9.77933594 58.66282715 -9.81054688 60.01245117 C-10 63 -10 63 -11 64 C-12.66617115 64.04063832 -14.33388095 64.042721 -16 64 C-16.02493556 60.01644868 -16.04297028 56.03292833 -16.05493164 52.04931641 C-16.06236421 50.03676759 -16.07507829 48.02424051 -16.08789062 46.01171875 C-16.11547041 35.0349635 -16.11547041 35.0349635 -15.48828125 30.83203125 C-14.66648646 24.38258575 -15.03726173 17.89376161 -15.21484375 11.40429688 C-15.22902344 10.36724609 -15.24320313 9.33019531 -15.2578125 8.26171875 C-15.2798877 7.32287842 -15.30196289 6.38403809 -15.32470703 5.41674805 C-15 3 -15 3 -13.65087891 1.19824219 C-9.8889447 -1.53224777 -4.39394917 -0.5179396 0 0 Z " fill="#004C73" transform="translate(48,10)"/>
<path d="M0 0 C0.75087891 0.04060547 1.50175781 0.08121094 2.27539062 0.12304688 C6.66949375 0.44381254 10.12691711 0.93474645 13.5625 3.9375 C14.05078125 6.19921875 14.05078125 6.19921875 13.875 8.625 C13.80732422 9.83736328 13.80732422 9.83736328 13.73828125 11.07421875 C13.68027344 11.68910156 13.62226562 12.30398437 13.5625 12.9375 C12.5725 13.4325 12.5725 13.4325 11.5625 13.9375 C11.10875 14.700625 10.655 15.46375 10.1875 16.25 C7.2825 21.05442308 7.2825 21.05442308 4.5625 22.9375 C-0.56150691 23.64096536 -5.89321175 23.63567115 -10.4375 20.9375 C-12.86686835 17.29344748 -12.76697342 15.338683 -12.8125 11 C-12.85503906 9.16115234 -12.85503906 9.16115234 -12.8984375 7.28515625 C-12.4375 3.9375 -12.4375 3.9375 -10.94140625 1.4921875 C-7.32777681 -0.7515325 -4.07639422 -0.36551784 0 0 Z " fill="#004F79" transform="translate(59.4375,49.0625)"/>
<path d="M0 0 C3.3 0 6.6 0 10 0 C10 0.66 10 1.32 10 2 C11.32 2.66 12.64 3.32 14 4 C14 4.66 14 5.32 14 6 C14.66 6 15.32 6 16 6 C16.4531908 9.09680381 16.51179629 11.21524569 14.76953125 13.88671875 C12.3337015 16.7555849 10.15232839 18.89844774 7 21 C4.69 21 2.38 21 0 21 C0 14.07 0 7.14 0 0 Z " fill="#000813" transform="translate(60,96)"/>
<path d="M0 0 C2.5 0.125 2.5 0.125 3.5 1.125 C5.82817964 1.49260731 8.1618385 1.82741581 10.5 2.125 C9.90940367 9.33027523 9.90940367 9.33027523 8.4375 12.1875 C5.22534902 13.7417666 1.86882082 13.07628061 -1.5 12.125 C-3.5 10.125 -3.5 10.125 -3.73046875 7.99609375 C-3.70919922 6.79146484 -3.70919922 6.79146484 -3.6875 5.5625 C-3.68105469 4.75683594 -3.67460938 3.95117188 -3.66796875 3.12109375 C-3.41515801 0.11676148 -3.03505973 0.15175299 0 0 Z " fill="#000F1D" transform="translate(55.5,53.875)"/>
<path d="M0 0 C8.49847772 0.61583172 8.49847772 0.61583172 10.76953125 2.35546875 C12.68596779 4.9168014 12.38684806 6.90521552 12 10 C10.76953125 11.67578125 10.76953125 11.67578125 9 13 C6.73828125 13.29296875 6.73828125 13.29296875 4.3125 13.1875 C2.889375 13.125625 1.46625 13.06375 0 13 C0 8.71 0 4.42 0 0 Z " fill="#000813" transform="translate(41,17)"/>
<path d="M0 0 C1.134375 0.020625 2.26875 0.04125 3.4375 0.0625 C3.7675 1.3825 4.0975 2.7025 4.4375 4.0625 C7.4075 4.3925 10.3775 4.7225 13.4375 5.0625 C13.7675 6.0525 14.0975 7.0425 14.4375 8.0625 C13.7775 8.0625 13.1175 8.0625 12.4375 8.0625 C12.4375 7.4025 12.4375 6.7425 12.4375 6.0625 C9.1375 6.0625 5.8375 6.0625 2.4375 6.0625 C2.4375 12.9925 2.4375 19.9225 2.4375 27.0625 C8.75233984 26.53684165 8.75233984 26.53684165 11.4375 25.0625 C10.4375 28.0625 10.4375 28.0625 8.4375 29.0625 C5.375 29.1875 5.375 29.1875 2.4375 29.0625 C1.4375 28.0625 1.4375 28.0625 1.32397461 25.56225586 C1.32921143 24.47823486 1.33444824 23.39421387 1.33984375 22.27734375 C1.34306641 21.10751953 1.34628906 19.93769531 1.34960938 18.73242188 C1.35798828 17.50072266 1.36636719 16.26902344 1.375 15 C1.37951172 13.76443359 1.38402344 12.52886719 1.38867188 11.25585938 C1.40050392 8.19135883 1.41698827 5.12695279 1.4375 2.0625 C0.1175 2.0625 -1.2025 2.0625 -2.5625 2.0625 C-2.55089844 3.1246875 -2.53929687 4.186875 -2.52734375 5.28125 C-2.4219527 19.21921621 -2.4219527 19.21921621 -3.5625 26.0625 C-4.5525 25.4025 -5.5425 24.7425 -6.5625 24.0625 C-6.41941406 22.85013672 -6.41941406 22.85013672 -6.2734375 21.61328125 C-6.16257813 20.54464844 -6.05171875 19.47601563 -5.9375 18.375 C-5.82148437 17.31925781 -5.70546875 16.26351562 -5.5859375 15.17578125 C-5.5614674 11.92533654 -6.15397437 9.96019204 -7.5625 7.0625 C-6.5725 7.5575 -6.5725 7.5575 -5.5625 8.0625 C-5.418125 6.928125 -5.27375 5.79375 -5.125 4.625 C-4.40694444 0.07731481 -4.40694444 0.07731481 0 0 Z " fill="#00324F" transform="translate(57.5625,89.9375)"/>
<path d="M0 0 C2.6875 -0.375 2.6875 -0.375 6 0 C8.9375 2.6875 8.9375 2.6875 11 6 C10.8125 8.875 10.8125 8.875 10 11 C8 9.625 8 9.625 6 8 C6 7.34 6 6.68 6 6 C5.38125 5.7525 4.7625 5.505 4.125 5.25 C1.64931313 3.79371361 1.04874998 2.62187494 0 0 Z " fill="#001525" transform="translate(37,97)"/>
<path d="M0 0 C1.65 0 3.3 0 5 0 C6.85776765 3.13498292 7.20140476 5.37471432 7 9 C5.5393715 6.35261084 5 5.10551666 5 2 C4.01 2 3.02 2 2 2 C2 5.3 2 8.6 2 12 C1.67 12 1.34 12 1 12 C0.67 8.04 0.34 4.08 0 0 Z " fill="#003A59" transform="translate(71,17)"/>
<path d="M0 0 C0.33 0 0.66 0 1 0 C1 1.98 1 3.96 1 6 C3.64 6 6.28 6 9 6 C9 6.99 9 7.98 9 9 C6.525 8.01 6.525 8.01 4 7 C3.67 8.98 3.34 10.96 3 13 C2.67 11.68 2.34 10.36 2 9 C1.34 9 0.68 9 0 9 C0 6.03 0 3.06 0 0 Z " fill="#002D46" transform="translate(81,38)"/>
<path d="M0 0 C1.98 0 3.96 0 6 0 C6.08159574 4.16138263 5.98248524 7.9472484 5 12 C4.67 12 4.34 12 4 12 C4 8.7 4 5.4 4 2 C2.68 2 1.36 2 0 2 C0 1.34 0 0.68 0 0 Z " fill="#00324D" transform="translate(104,18)"/>
<path d="M0 0 C1.32 0.99 2.64 1.98 4 3 C3.67 3.66 3.34 4.32 3 5 C2.34 5 1.68 5 1 5 C0.01 6.98 -0.98 8.96 -2 11 C-3.65 11 -5.3 11 -7 11 C-6.06414062 10.64808594 -6.06414062 10.64808594 -5.109375 10.2890625 C-2.39744059 8.63176925 -2.11024003 7.3858401 -1.25 4.375 C-1.00765625 3.55773437 -0.7653125 2.74046875 -0.515625 1.8984375 C-0.34546875 1.27195313 -0.1753125 0.64546875 0 0 Z " fill="#002034" transform="translate(87,61)"/>
<path d="M0 0 C2 3 2 3 2 5 C2.66 5 3.32 5 4 5 C3.67 6.65 3.34 8.3 3 10 C2.34 10 1.68 10 1 10 C0.67 6.7 0.34 3.4 0 0 Z " fill="#003350" transform="translate(91,47)"/>
</svg>
